<?xml version="1.0" encoding="utf-8"?>
<!-- Generator: Adobe Illustrator 19.1.0, SVG Export Plug-In . SVG Version: 6.00 Build 0)  -->
<!DOCTYPE svg PUBLIC "-//W3C//DTD SVG 1.1//EN" "http://www.w3.org/Graphics/SVG/1.1/DTD/svg11.dtd">
<svg version="1.1" id="Layer_1" xmlns="http://www.w3.org/2000/svg" xmlns:xlink="http://www.w3.org/1999/xlink" x="0px" y="0px"
	 viewBox="0 0 640 480" style="enable-background:new 0 0 640 480;" xml:space="preserve">
<style type="text/css">
	.st0{fill:none;stroke:#999999;stroke-width:4;stroke-linecap:round;stroke-miterlimit:10;}
	.st1{fill:#999999;}
</style>
<g>
	<path class="st1" d="M122.4,153.5H73.1c-0.9,0-1.6-0.6-1.7-1.5L61.3,62.9c-0.1-0.5,0.1-1,0.4-1.3C62,61.2,62.5,61,63,61h69.6
		c0.5,0,0.9,0.2,1.3,0.6s0.5,0.8,0.4,1.3L124.1,152C124,152.9,123.2,153.5,122.4,153.5z M74.7,150.1h46.2l9.8-85.7H64.9L74.7,150.1z
		"/>
	<path class="st1" d="M128.5,100.4H67.3c-0.9,0-1.7-0.8-1.7-1.7s0.8-1.7,1.7-1.7h61.3c0.9,0,1.7,0.8,1.7,1.7
		S129.5,100.4,128.5,100.4z"/>
</g>
<g>
	<path class="st1" d="M233,153.5h-49.2c-0.9,0-1.6-0.6-1.7-1.5l-10.2-89.1c-0.1-0.5,0.1-1,0.4-1.3c0.3-0.4,0.8-0.6,1.3-0.6h69.6
		c0.5,0,0.9,0.2,1.3,0.6s0.5,0.8,0.4,1.3L234.7,152C234.6,152.9,233.9,153.5,233,153.5z M185.3,150.1h46.2l9.8-85.7h-65.8
		L185.3,150.1z"/>
	<path class="st1" d="M239.2,100.4h-61.3c-0.9,0-1.7-0.8-1.7-1.7s0.8-1.7,1.7-1.7h61.3c0.9,0,1.7,0.8,1.7,1.7
		S240.1,100.4,239.2,100.4z"/>
</g>
<g>
	<path class="st1" d="M343.7,153.5h-49.2c-0.9,0-1.6-0.6-1.7-1.5l-10.2-89.1c-0.1-0.5,0.1-1,0.4-1.3c0.3-0.4,0.8-0.6,1.3-0.6h69.6
		c0.5,0,0.9,0.2,1.3,0.6s0.5,0.8,0.4,1.3L345.4,152C345.3,152.9,344.6,153.5,343.7,153.5z M296,150.1h46.2l9.8-85.7h-65.8L296,150.1
		z"/>
	<path class="st1" d="M349.9,100.4h-61.3c-0.9,0-1.7-0.8-1.7-1.7s0.8-1.7,1.7-1.7h61.3c0.9,0,1.7,0.8,1.7,1.7
		S350.8,100.4,349.9,100.4z"/>
</g>
<g>
	<path class="st1" d="M454.4,153.5h-49.2c-0.9,0-1.6-0.6-1.7-1.5l-10.2-89.1c-0.1-0.5,0.1-1,0.4-1.3c0.3-0.4,0.8-0.6,1.3-0.6h69.6
		c0.5,0,0.9,0.2,1.3,0.6s0.5,0.8,0.4,1.3L456.1,152C456,152.9,455.2,153.5,454.4,153.5z M406.7,150.1h46.2l9.8-85.7h-65.8
		L406.7,150.1z"/>
	<path class="st1" d="M460.5,100.4h-61.3c-0.9,0-1.7-0.8-1.7-1.7s0.8-1.7,1.7-1.7h61.3c0.9,0,1.7,0.8,1.7,1.7
		S461.5,100.4,460.5,100.4z"/>
</g>
<g>
	<path class="st1" d="M565.1,153.5h-49.2c-0.9,0-1.6-0.6-1.7-1.5l-10.2-89.1c-0.1-0.5,0.1-1,0.4-1.3c0.3-0.4,0.8-0.6,1.3-0.6h69.6
		c0.5,0,0.9,0.2,1.3,0.6c0.3,0.4,0.5,0.8,0.4,1.3L566.7,152C566.6,152.9,565.9,153.5,565.1,153.5z M517.3,150.1h46.2l9.8-85.7h-65.8
		L517.3,150.1z"/>
	<path class="st1" d="M571.2,100.4H510c-0.9,0-1.7-0.8-1.7-1.7S509,97,510,97h61.3c0.9,0,1.7,0.8,1.7,1.7S572.1,100.4,571.2,100.4z"
		/>
</g>
<g>
	<path class="st1" d="M122.4,282.3H73.1c-0.9,0-1.6-0.6-1.7-1.5l-10.2-89.1c-0.1-0.5,0.1-1,0.4-1.3c0.3-0.4,0.8-0.6,1.3-0.6h69.6
		c0.5,0,0.9,0.2,1.3,0.6c0.3,0.4,0.5,0.8,0.4,1.3l-10.2,89.1C124,281.7,123.2,282.3,122.4,282.3z M74.7,279h46.2l9.8-85.7H64.9
		L74.7,279z"/>
	<path class="st1" d="M128.5,229.2H67.3c-0.9,0-1.7-0.8-1.7-1.7c0-0.9,0.8-1.7,1.7-1.7h61.3c0.9,0,1.7,0.8,1.7,1.7
		C130.2,228.4,129.5,229.2,128.5,229.2z"/>
</g>
<g>
	<path class="st1" d="M233,282.3h-49.2c-0.9,0-1.6-0.6-1.7-1.5l-10.2-89.1c-0.1-0.5,0.1-1,0.4-1.3c0.3-0.4,0.8-0.6,1.3-0.6h69.6
		c0.5,0,0.9,0.2,1.3,0.6c0.3,0.4,0.5,0.8,0.4,1.3l-10.2,89.1C234.6,281.7,233.9,282.3,233,282.3z M185.3,279h46.2l9.8-85.7h-65.8
		L185.3,279z"/>
	<path class="st1" d="M239.2,229.2h-61.3c-0.9,0-1.7-0.8-1.7-1.7c0-0.9,0.8-1.7,1.7-1.7h61.3c0.9,0,1.7,0.8,1.7,1.7
		C240.9,228.4,240.1,229.2,239.2,229.2z"/>
</g>
<g>
	<path class="st1" d="M343.7,282.3h-49.2c-0.9,0-1.6-0.6-1.7-1.5l-10.2-89.1c-0.1-0.5,0.1-1,0.4-1.3c0.3-0.4,0.8-0.6,1.3-0.6h69.6
		c0.5,0,0.9,0.2,1.3,0.6c0.3,0.4,0.5,0.8,0.4,1.3l-10.2,89.1C345.3,281.7,344.6,282.3,343.7,282.3z M296,279h46.2l9.8-85.7h-65.8
		L296,279z"/>
	<path class="st1" d="M349.9,229.2h-61.3c-0.9,0-1.7-0.8-1.7-1.7c0-0.9,0.8-1.7,1.7-1.7h61.3c0.9,0,1.7,0.8,1.7,1.7
		C351.6,228.4,350.8,229.2,349.9,229.2z"/>
</g>
<g>
	<path class="st1" d="M454.4,282.3h-49.2c-0.9,0-1.6-0.6-1.7-1.5l-10.2-89.1c-0.1-0.5,0.1-1,0.4-1.3c0.3-0.4,0.8-0.6,1.3-0.6h69.6
		c0.5,0,0.9,0.2,1.3,0.6c0.3,0.4,0.5,0.8,0.4,1.3l-10.2,89.1C456,281.7,455.2,282.3,454.4,282.3z M406.7,279h46.2l9.8-85.7h-65.8
		L406.7,279z"/>
	<path class="st1" d="M460.5,229.2h-61.3c-0.9,0-1.7-0.8-1.7-1.7c0-0.9,0.8-1.7,1.7-1.7h61.3c0.9,0,1.7,0.8,1.7,1.7
		C462.2,228.4,461.5,229.2,460.5,229.2z"/>
</g>
<g>
	<path class="st1" d="M565.1,282.3h-49.2c-0.9,0-1.6-0.6-1.7-1.5l-10.2-89.1c-0.1-0.5,0.1-1,0.4-1.3c0.3-0.4,0.8-0.6,1.3-0.6h69.6
		c0.5,0,0.9,0.2,1.3,0.6c0.3,0.4,0.5,0.8,0.4,1.3l-10.2,89.1C566.6,281.7,565.9,282.3,565.1,282.3z M517.3,279h46.2l9.8-85.7h-65.8
		L517.3,279z"/>
	<path class="st1" d="M571.2,229.2H510c-0.9,0-1.7-0.8-1.7-1.7c0-0.9,0.8-1.7,1.7-1.7h61.3c0.9,0,1.7,0.8,1.7,1.7
		C572.9,228.4,572.1,229.2,571.2,229.2z"/>
</g>
<g>
	<path class="st1" d="M122.4,421.4H73.1c-0.9,0-1.6-0.6-1.7-1.5l-10.2-89.1c-0.1-0.5,0.1-1,0.4-1.3s0.8-0.6,1.3-0.6h69.6
		c0.5,0,0.9,0.2,1.3,0.6s0.5,0.8,0.4,1.3l-10.2,89.1C124,420.7,123.2,421.4,122.4,421.4z M74.7,418h46.2l9.8-85.7H64.9L74.7,418z"/>
	<path class="st1" d="M128.5,368.2H67.3c-0.9,0-1.7-0.8-1.7-1.7c0-0.9,0.8-1.7,1.7-1.7h61.3c0.9,0,1.7,0.8,1.7,1.7
		C130.2,367.4,129.5,368.2,128.5,368.2z"/>
</g>
<g>
	<path class="st1" d="M233,421.4h-49.2c-0.9,0-1.6-0.6-1.7-1.5l-10.2-89.1c-0.1-0.5,0.1-1,0.4-1.3s0.8-0.6,1.3-0.6h69.6
		c0.5,0,0.9,0.2,1.3,0.6s0.5,0.8,0.4,1.3l-10.2,89.1C234.6,420.7,233.9,421.4,233,421.4z M185.3,418h46.2l9.8-85.7h-65.8L185.3,418z
		"/>
	<path class="st1" d="M239.2,368.2h-61.3c-0.9,0-1.7-0.8-1.7-1.7c0-0.9,0.8-1.7,1.7-1.7h61.3c0.9,0,1.7,0.8,1.7,1.7
		C240.9,367.4,240.1,368.2,239.2,368.2z"/>
</g>
<g>
	<path class="st1" d="M343.7,421.4h-49.2c-0.9,0-1.6-0.6-1.7-1.5l-10.2-89.1c-0.1-0.5,0.1-1,0.4-1.3s0.8-0.6,1.3-0.6h69.6
		c0.5,0,0.9,0.2,1.3,0.6s0.5,0.8,0.4,1.3l-10.2,89.1C345.3,420.7,344.6,421.4,343.7,421.4z M296,418h46.2l9.8-85.7h-65.8L296,418z"
		/>
	<path class="st1" d="M349.9,368.2h-61.3c-0.9,0-1.7-0.8-1.7-1.7c0-0.9,0.8-1.7,1.7-1.7h61.3c0.9,0,1.7,0.8,1.7,1.7
		C351.6,367.4,350.8,368.2,349.9,368.2z"/>
</g>
<g>
	<path class="st1" d="M454.4,421.4h-49.2c-0.9,0-1.6-0.6-1.7-1.5l-10.2-89.1c-0.1-0.5,0.1-1,0.4-1.3s0.8-0.6,1.3-0.6h69.6
		c0.5,0,0.9,0.2,1.3,0.6s0.5,0.8,0.4,1.3l-10.2,89.1C456,420.7,455.2,421.4,454.4,421.4z M406.7,418h46.2l9.8-85.7h-65.8L406.7,418z
		"/>
	<path class="st1" d="M460.5,368.2h-61.3c-0.9,0-1.7-0.8-1.7-1.7c0-0.9,0.8-1.7,1.7-1.7h61.3c0.9,0,1.7,0.8,1.7,1.7
		C462.2,367.4,461.5,368.2,460.5,368.2z"/>
</g>
<g>
	<path class="st1" d="M565.1,421.4h-49.2c-0.9,0-1.6-0.6-1.7-1.5l-10.2-89.1c-0.1-0.5,0.1-1,0.4-1.3s0.8-0.6,1.3-0.6h69.6
		c0.5,0,0.9,0.2,1.3,0.6c0.3,0.4,0.5,0.8,0.4,1.3l-10.2,89.1C566.6,420.7,565.9,421.4,565.1,421.4z M517.3,418h46.2l9.8-85.7h-65.8
		L517.3,418z"/>
	<path class="st1" d="M571.2,368.2H510c-0.9,0-1.7-0.8-1.7-1.7c0-0.9,0.8-1.7,1.7-1.7h61.3c0.9,0,1.7,0.8,1.7,1.7
		C572.9,367.4,572.1,368.2,571.2,368.2z"/>
</g>
</svg>
