<?xml version="1.0" encoding="utf-8"?>
<!-- Generator: Adobe Illustrator 19.1.0, SVG Export Plug-In . SVG Version: 6.00 Build 0)  -->
<svg version="1.1" id="Layer_1" xmlns="http://www.w3.org/2000/svg" xmlns:xlink="http://www.w3.org/1999/xlink" x="0px" y="0px"
	 viewBox="-208 245.4 194.5 303.6" style="enable-background:new -208 245.4 194.5 303.6;" xml:space="preserve">
<style type="text/css">
	.st0{fill:#FFFFFF;}
	.st1{fill:#33001E;}
</style>
<g>
	<path class="st0" d="M-206.8,516.6c8.1,10.8,80.1,32.4,102.1,32.4c2.3,0,8.4,0,9.6-4.3c3.3-11.3-8.3-15.4-15.2-17.8
		c-1.2-0.4-2.4-0.8-3.3-1.2l-0.3-0.1c-12.5-5.1-17.8-10-18.5-11.5c-0.1-2.2,1.7-14.5,11-48c5.2-18.6,10.2-35.1,13-42.9
		c38.7,2.3,87.3-21,93.7-60c1.4-8.5,1.7-28.1,0.7-47.7c-0.5-9.8-1.3-18.4-2.2-24.6c-1.5-9.6-3.4-15.5-8.9-17.1l-96.9-28.1
		c-0.8-0.2-1.7-0.3-2.5-0.3c-4.6,0-8.9,3.8-14.3,10c-4.2,4.8-9.4,11.6-15.1,19.6c-11.3,16-21.6,32.7-24.9,40.7
		c-7.6,17.8-5.8,38.9,5,59.3c8,15.1,24.1,31,41.5,40.9c-1.7,7.8-6,24.6-11.6,43.7c-9.7,33.2-14.8,44.6-16.1,46.5
		c-0.6,0.3-2.9,1.1-8.2,1.1c-4,0-8.7-0.5-13.6-1.3l-0.4-0.1c-1-0.2-2.2-0.5-3.5-0.7c-3.2-0.7-6.8-1.6-10.2-1.6c-8,0-11,4.6-12.1,8.5
		C-208.1,513-208.2,514.7-206.8,516.6z M-156.1,309.5c0,0-0.7-1.2-0.8-1.3c-0.2-0.3-0.3-0.9,0.1-1.7c10.6-17.4,26-38.5,32.6-45
		c0.2-0.2,0.5-0.7,1.9-0.3l89.5,25.9c0.9,0.4,0.9,0.7,1,1c2,7.2,3.8,23,3.5,42.3c0,1-0.7,1.1-1,0.9c-7.6-2.9-15.5-4.4-24.1-4.4
		c-11.9,0-23.1,2.7-34,5.4c-9.8,2.4-19.1,4.7-28,4.7C-126.6,337.1-141.4,334-156.1,309.5z"/>
	<path class="st1" d="M-53.3,325.4c-11.8-0.3-23,2.3-33.9,4.8c-9.8,2.3-19.1,4.4-27.9,4.2c-11.1-0.2-25.7-3.8-39.8-29.3l-0.5-0.9
		c-10.6,11.4-13.1,27.9-11.7,43.2c2.1,21.3,16.7,38.8,34.2,48.8c22.5,13,52.3,14.6,75.3,1.6c25.6-14.5,29.2-43,29.2-70.6
		C-36.3,324.5-44.8,325.6-53.3,325.4z"/>
</g>
</svg>
